<svg id="Layer_1" data-name="Layer 1" xmlns="http://www.w3.org/2000/svg" viewBox="0 0 151.79 27.59"><defs><style>.cls-1{fill:#05b04e;}.cls-2{fill:#fff;}</style></defs><title>03 follow.it - Follow this blog - green</title><rect class="cls-1" width="151.79" height="27.59" rx="13.79"/><path class="cls-2" d="M30,12.71l-6-6a1.54,1.54,0,0,0-2.63,1.09V9.87H18.56c-3.37,0-5.6-1.19-7-3.38a.6.6,0,0,0-1.11.31V9.87A8.13,8.13,0,0,0,18.56,18h2.76v1.85A1.54,1.54,0,0,0,24,20.93l6-6A1.55,1.55,0,0,0,30,12.71Z"/><path class="cls-2" d="M40.9,19V8.39h7.18V9.64H42.31v3.3h5v1.25h-5V19Z"/><path class="cls-2" d="M49.25,15.17A4,4,0,0,1,50.44,12a3.61,3.61,0,0,1,2.43-.86,3.42,3.42,0,0,1,2.59,1,3.91,3.91,0,0,1,1,2.87A5.21,5.21,0,0,1,56,17.4a3.2,3.2,0,0,1-1.3,1.33,3.83,3.83,0,0,1-1.86.47,3.49,3.49,0,0,1-2.62-1A4.17,4.17,0,0,1,49.25,15.17Zm1.34,0a3.29,3.29,0,0,0,.65,2.22,2.14,2.14,0,0,0,3.24,0,3.33,3.33,0,0,0,.65-2.26A3.21,3.21,0,0,0,54.48,13a2.16,2.16,0,0,0-3.24,0A3.28,3.28,0,0,0,50.59,15.17Z"/><path class="cls-2" d="M58,19V8.39h1.31V19Z"/><path class="cls-2" d="M61.28,19V8.39h1.3V19Z"/><path class="cls-2" d="M64.12,15.17A4,4,0,0,1,65.31,12a3.58,3.58,0,0,1,2.42-.86,3.44,3.44,0,0,1,2.6,1,4,4,0,0,1,1,2.87,5.07,5.07,0,0,1-.45,2.34,3.18,3.18,0,0,1-1.29,1.33,3.85,3.85,0,0,1-1.87.47,3.46,3.46,0,0,1-2.61-1A4.12,4.12,0,0,1,64.12,15.17Zm1.34,0a3.29,3.29,0,0,0,.65,2.22,2.14,2.14,0,0,0,3.24,0A3.39,3.39,0,0,0,70,15.13,3.21,3.21,0,0,0,69.35,13a2.16,2.16,0,0,0-3.24,0A3.28,3.28,0,0,0,65.46,15.17Z"/><path class="cls-2" d="M74.3,19l-2.36-7.71h1.35l1.22,4.45L75,17.42c0-.08.15-.61.4-1.59l1.22-4.51h1.35l1.15,4.47.39,1.47.44-1.49,1.32-4.45h1.27L80.1,19H78.74l-1.22-4.62-.3-1.31L75.66,19Z"/><path class="cls-2" d="M90.59,17.86,90.77,19a4.58,4.58,0,0,1-1,.12,2.27,2.27,0,0,1-1.11-.23,1.3,1.3,0,0,1-.55-.59A4.84,4.84,0,0,1,88,16.77V12.33H87v-1h1V9.41l1.3-.78v2.69h1.32v1H89.27v4.51a2.51,2.51,0,0,0,.07.72.51.51,0,0,0,.23.25.78.78,0,0,0,.44.1A5,5,0,0,0,90.59,17.86Z"/><path class="cls-2" d="M91.86,19V8.39h1.31V12.2a2.94,2.94,0,0,1,2.31-1.06,3.14,3.14,0,0,1,1.48.34,2,2,0,0,1,.91.93,4.37,4.37,0,0,1,.27,1.73V19H96.83V14.14a2,2,0,0,0-.42-1.42,1.56,1.56,0,0,0-1.2-.45,2.11,2.11,0,0,0-1.09.3,1.61,1.61,0,0,0-.73.82,3.61,3.61,0,0,0-.22,1.42V19Z"/><path class="cls-2" d="M100.14,9.89V8.39h1.3v1.5Zm0,9.14V11.32h1.3V19Z"/><path class="cls-2" d="M102.91,16.72l1.29-.2a1.78,1.78,0,0,0,.6,1.19,2.12,2.12,0,0,0,1.39.42,2.08,2.08,0,0,0,1.34-.37,1.1,1.1,0,0,0,.43-.86.78.78,0,0,0-.38-.7,6,6,0,0,0-1.33-.44,11.71,11.71,0,0,1-2-.63,1.89,1.89,0,0,1-.84-.73,2.07,2.07,0,0,1,0-2,2.14,2.14,0,0,1,.64-.73,2.93,2.93,0,0,1,.83-.38,4.11,4.11,0,0,1,1.13-.16,4.36,4.36,0,0,1,1.6.27,2.22,2.22,0,0,1,1,.7,2.74,2.74,0,0,1,.45,1.2l-1.28.17a1.45,1.45,0,0,0-.5-.93,1.88,1.88,0,0,0-1.18-.33,2.15,2.15,0,0,0-1.29.3.86.86,0,0,0-.38.69.72.72,0,0,0,.16.46,1.09,1.09,0,0,0,.5.35c.13.05.51.16,1.15.33a16.09,16.09,0,0,1,1.94.61,1.82,1.82,0,0,1,1.17,1.8,2.2,2.2,0,0,1-.38,1.23,2.45,2.45,0,0,1-1.1.89,4,4,0,0,1-1.63.32,3.67,3.67,0,0,1-2.29-.62A2.92,2.92,0,0,1,102.91,16.72Z"/><path class="cls-2" d="M116.19,19H115V8.39h1.31v3.79a2.58,2.58,0,0,1,2.11-1,3.31,3.31,0,0,1,1.35.29,2.69,2.69,0,0,1,1,.81,3.78,3.78,0,0,1,.64,1.25,5,5,0,0,1,.24,1.57,4.41,4.41,0,0,1-1,3.06,3.08,3.08,0,0,1-2.35,1.08,2.46,2.46,0,0,1-2.15-1.14Zm0-3.92a4,4,0,0,0,.38,2,1.86,1.86,0,0,0,3.15.26,3.4,3.4,0,0,0,.62-2.22,3.42,3.42,0,0,0-.6-2.22,1.82,1.82,0,0,0-1.45-.72,1.9,1.9,0,0,0-1.48.74A3.32,3.32,0,0,0,116.18,15.11Z"/><path class="cls-2" d="M123.22,19V8.39h1.31V19Z"/><path class="cls-2" d="M126.07,15.17A4,4,0,0,1,127.26,12a3.58,3.58,0,0,1,2.42-.86,3.44,3.44,0,0,1,2.6,1,4,4,0,0,1,1,2.87,5.07,5.07,0,0,1-.45,2.34,3.18,3.18,0,0,1-1.29,1.33,3.85,3.85,0,0,1-1.87.47,3.45,3.45,0,0,1-2.61-1A4.12,4.12,0,0,1,126.07,15.17Zm1.34,0a3.29,3.29,0,0,0,.65,2.22,2.14,2.14,0,0,0,3.24,0,3.39,3.39,0,0,0,.65-2.26A3.21,3.21,0,0,0,131.3,13a2.16,2.16,0,0,0-3.24,0A3.28,3.28,0,0,0,127.41,15.17Z"/><path class="cls-2" d="M134.58,19.66l1.27.19a1.23,1.23,0,0,0,.45.86,2.16,2.16,0,0,0,1.32.36,2.34,2.34,0,0,0,1.4-.36,1.79,1.79,0,0,0,.67-1,8.29,8.29,0,0,0,.1-1.67,2.72,2.72,0,0,1-2.14,1,2.92,2.92,0,0,1-2.46-1.15,4.43,4.43,0,0,1-.87-2.75,5.05,5.05,0,0,1,.4-2,3.21,3.21,0,0,1,1.16-1.44,3.1,3.1,0,0,1,1.78-.51,2.76,2.76,0,0,1,2.25,1.11v-.93h1.2V18a6.41,6.41,0,0,1-.36,2.55,2.72,2.72,0,0,1-1.16,1.19,4.06,4.06,0,0,1-2,.43,3.66,3.66,0,0,1-2.23-.62A2.1,2.1,0,0,1,134.58,19.66ZM135.66,15a3.31,3.31,0,0,0,.61,2.22,2,2,0,0,0,3,0,3.21,3.21,0,0,0,.61-2.17,3.21,3.21,0,0,0-.62-2.14,2,2,0,0,0-1.52-.71,1.89,1.89,0,0,0-1.48.7A3.21,3.21,0,0,0,135.66,15Z"/></svg>