<?xml version="1.0" encoding="utf-8"?>
<!-- Generator: Adobe Illustrator 24.2.1, SVG Export Plug-In . SVG Version: 6.00 Build 0)  -->
<svg version="1.1" id="Layer_1" xmlns="http://www.w3.org/2000/svg" xmlns:xlink="http://www.w3.org/1999/xlink" x="0px" y="0px"
	 viewBox="0 0 33.2 32" style="enable-background:new 0 0 33.2 32;" xml:space="preserve">
<style type="text/css">
	.st0{filter:url(#Adobe_OpacityMaskFilter);}
	.st1{fill-rule:evenodd;clip-rule:evenodd;fill:#FFFFFF;}
	.st2{mask:url(#mask-2_2_);fill-rule:evenodd;clip-rule:evenodd;fill:#07C160;}
	.st3{filter:url(#Adobe_OpacityMaskFilter_1_);}
	.st4{mask:url(#mask-2_3_);fill-rule:evenodd;clip-rule:evenodd;fill:#07C160;}
	.st5{filter:url(#Adobe_OpacityMaskFilter_2_);}
	.st6{mask:url(#mask-2_4_);fill-rule:evenodd;clip-rule:evenodd;fill:#07C160;}
</style>
<g id="标题栏和目录">
	<g id="平台logo" transform="translate(-25.000000, -90.000000)">
		<g id="编组" transform="translate(25.000000, 90.000000)">
			<g id="Clip-6">
			</g>
			<defs>
				<filter id="Adobe_OpacityMaskFilter" filterUnits="userSpaceOnUse" x="5" y="0" width="22.2" height="17.9">
					<feColorMatrix  type="matrix" values="1 0 0 0 0  0 1 0 0 0  0 0 1 0 0  0 0 0 1 0"/>
				</filter>
			</defs>
			<mask maskUnits="userSpaceOnUse" x="5" y="0" width="22.2" height="17.9" id="mask-2_2_">
				<g class="st0">
					<polygon id="path-1_2_" class="st1" points="0,32 121,32 121,0 0,0 					"/>
				</g>
			</mask>
			<path id="Fill-7" class="st2" d="M27.2,6.4C25.5,2.9,21.3,0,16.5,0C14,0,10.1,0.9,7.3,4.3c-1.9,2.3-2.6,5-2.2,7.7
				c0.3,1.9,1.3,4.3,2.8,5.9c0.6-3.9,2.6-7,5.3-9.3C18.1,4.9,23.4,5.1,27.2,6.4"/>
			<defs>
				<filter id="Adobe_OpacityMaskFilter_1_" filterUnits="userSpaceOnUse" x="18.1" y="8.2" width="15.1" height="22.5">
					<feColorMatrix  type="matrix" values="1 0 0 0 0  0 1 0 0 0  0 0 1 0 0  0 0 0 1 0"/>
				</filter>
			</defs>
			<mask maskUnits="userSpaceOnUse" x="18.1" y="8.2" width="15.1" height="22.5" id="mask-2_3_">
				<g class="st3">
					<polygon id="path-1_3_" class="st1" points="0,32 121,32 121,0 0,0 					"/>
				</g>
			</mask>
			<path id="Fill-8" class="st4" d="M31,12.3c-3-3.9-8.2-5-12.9-3.2c0.2,0,0.3,0.1,0.5,0.1c6.9,2.4,10.7,9.9,8.4,16.8
				c-0.6,1.8-1.6,3.4-2.8,4.8c1.5-0.4,3-1,4.3-2C33.7,24.6,34.7,17.2,31,12.3"/>
			<defs>
				<filter id="Adobe_OpacityMaskFilter_2_" filterUnits="userSpaceOnUse" x="0" y="12.5" width="24.6" height="19.5">
					<feColorMatrix  type="matrix" values="1 0 0 0 0  0 1 0 0 0  0 0 1 0 0  0 0 0 1 0"/>
				</filter>
			</defs>
			<mask maskUnits="userSpaceOnUse" x="0" y="12.5" width="24.6" height="19.5" id="mask-2_4_">
				<g class="st5">
					<polygon id="path-1_4_" class="st1" points="0,32 121,32 121,0 0,0 					"/>
				</g>
			</mask>
			<path id="Fill-9" class="st6" d="M16.5,24.7c-1.1,0-2.1-0.1-3.1-0.3c-0.1,0-0.2,0-0.4,0c-0.3,0-0.6,0.1-0.8,0.3L9,26.7
				c-0.1,0.1-0.2,0.1-0.3,0.1c-0.3,0-0.5-0.2-0.5-0.5c0-0.1,0-0.3,0.1-0.4c0-0.1,0.4-1.6,0.6-2.6c0-0.1,0-0.2,0-0.3
				c0-0.3-0.2-0.6-0.5-0.8c-3.4-2.3-5.7-6-6.3-9.7c-0.9,1.3-1.3,2.4-1.8,4c-1.7,5.8,2,12.8,7.9,14.8c6.8,2.2,13.4-0.3,15.6-6.1
				c0.3-0.7,0.6-1.9,0.6-2.9C22.2,23.9,19.7,24.7,16.5,24.7"/>
		</g>
	</g>
</g>
</svg>
